<?xml version="1.0" encoding="utf-8"?>
<!-- Generator: Adobe Illustrator 24.0.1, SVG Export Plug-In . SVG Version: 6.00 Build 0)  -->
<svg version="1.1" id="Layer_2" xmlns="http://www.w3.org/2000/svg" xmlns:xlink="http://www.w3.org/1999/xlink" x="0px" y="0px"
	 viewBox="0 0 206.82 271.49" style="enable-background:new 0 0 206.82 271.49;" xml:space="preserve">
<path d="M201.12,118.98c-3.39-67.01-24.6-81-54.29-99.67C117.15,0.66,44.2,8.29,44.2,8.29C24.3,9.58,13.67,18.9,9.85,31.19
	c-3.82,12.3-4.24,53.44-4.67,57.68c-0.42,4.24,8.91,15.27,10.6,25.02c1.7,9.75,0,22.48,0,30.54c0,8.06,14.84,42.41,16.96,50.89
	c2.12,8.48,14.84,26.29,16.12,30.54c1.27,4.24,11.03,25.45,11.03,25.45s16.96,21.21,52.59,6.79c35.62-14.42,69.55-47.92,73.79-57.25
	C190.52,191.51,204.51,185.99,201.12,118.98z M32.64,117.43c-4.38,0.84-9.52-1.52-11.04-3.71c-1.52-2.19-0.76-2.78-0.76-2.78
	c0.84-1.77,3.03-2.44,10.78-1.94c7.75,0.51,15,0.84,14.57,2.53C45.78,113.22,37.02,116.59,32.64,117.43z M123.46,112.46
	c-4.3,2.53-13.14,3.96-13.14,3.96c-4.63,0-8.93-0.67-12.89-1.6c-3.96-0.93-5.64-2.7-6.4-4.72c-0.76-2.02,2.02-4.55,3.88-5.73
	c1.85-1.18,12.13-0.25,19.71,0c7.58,0.25,13.4,1.35,14.49,2.61C130.2,108.25,127.76,109.93,123.46,112.46z"/>
</svg>
