<?xml version="1.0" encoding="utf-8"?>
<!-- Generator: Adobe Illustrator 24.0.1, SVG Export Plug-In . SVG Version: 6.00 Build 0)  -->
<svg version="1.1" id="Layer_1" xmlns="http://www.w3.org/2000/svg" xmlns:xlink="http://www.w3.org/1999/xlink" x="0px" y="0px"
	 viewBox="0 0 297 21.2" style="enable-background:new 0 0 297 21.2;" xml:space="preserve">
<style type="text/css">
	.st0{fill:#E82E21;}
	.st1{fill:#1D1D1D;}
</style>
<path class="st0" d="M66.9,21.2h3.5l0-0.1l2.6-6.9h0.5v7h2.2v-8.8h-4.4l-2.3,7h-0.5l-2.2-7h-4.3v8.8h2.2v-7h0.4L66.9,21.2z
	 M86.1,17.8v-2h-6.5v-1.5h7.2v-2h-9.4v8.8h2.2v-3.4H86.1z M95.4,21.2h2.4l-4.2-8.8h-3.4l-4.3,8.8h2.3l0.8-1.8h5.5L95.4,21.2z
	 M91.5,14.2h0.7l1.6,3.4h-3.9L91.5,14.2z M101.8,21.2h4.7c2.6,0,4.6-2,4.6-4.4c0-2.6-2-4.4-4.6-4.4h-4.7V21.2z M106.5,14.4
	c1.7,0,2.4,1.2,2.4,2.4c0,1.2-0.6,2.4-2.4,2.4H104v-4.8H106.5z M120,21.2v-2h-5.5v-1.5h4.7v-1.9h-4.7v-1.5h5.5v-2h-7.7v8.8H120z
	 M126.9,18.7c0,0.4-0.5,0.7-1.9,0.7c-1.5,0-2.8-0.3-3.7-0.7l-0.1,2c0.9,0.4,2.5,0.6,3.8,0.6c2.8,0,4.2-1.4,4.2-3
	c0-3.2-5.9-2.1-5.9-3.6c0-0.5,0.6-0.7,1.9-0.7c1.2,0,2.7,0.2,3.4,0.7l0.4-1.9c-0.7-0.4-2.2-0.7-3.7-0.7c-2.4,0-4.1,1-4.1,2.9
	C121,18.5,126.9,17.3,126.9,18.7z M130.3,21.2h2.2v-8.8h-2.2V21.2z M138.8,17.9h2v1.5c-0.5,0-0.9,0.1-1.3,0.1c-2.2,0-3.4-1-3.4-2.7
	c0-1.7,1.1-2.6,3.4-2.6c1.4,0,2.4,0.2,3.3,0.5l0.2-1.9c-0.7-0.3-2-0.5-3.5-0.5c-3.7,0-5.7,1.9-5.7,4.6c0,2.8,2.1,4.6,5.6,4.6
	c1.4,0,2.8-0.3,3.5-0.6V16h-4.2V17.9z M152.4,21.2h2.5v-8.8h-2.2v5.5h-0.3l-5.1-5.5h-2.6v8.8h2.2v-5.6h0.3L152.4,21.2z M166.9,21.2
	h2.4l-3.8-8.8h-2.8l-3.9,8.8h2.3l0.7-1.7h4.4L166.9,21.2z M164,14.2h0.1l1.4,3.5h-2.9L164,14.2z M178,21.2h2.5v-8.8h-2.2v5.5h-0.3
	l-5.1-5.5h-2.6v8.8h2.2v-5.6h0.3L178,21.2z M182.3,21.2h4.7c2.6,0,4.6-2,4.6-4.4c0-2.6-2-4.4-4.6-4.4h-4.7V21.2z M187,14.4
	c1.7,0,2.4,1.2,2.4,2.4c0,1.2-0.6,2.4-2.4,2.4h-2.5v-4.8H187z M204.2,14.4v-2h-9.1v2h3.4v6.8h2.2v-6.8H204.2z M212.8,21.2v-2h-5.5
	v-1.5h4.7v-1.9h-4.7v-1.5h5.5v-2h-7.7v8.8H212.8z M222.2,19c-0.7,0.2-1.7,0.4-2.8,0.4c-2.1,0-3.3-1-3.3-2.6c0-1.6,1.1-2.6,3.3-2.6
	c0.9,0,1.8,0.1,2.7,0.3l0.2-2c-0.8-0.2-2-0.3-2.9-0.3c-3.6,0-5.6,1.9-5.6,4.6c0,2.6,2,4.6,5.4,4.6c1.2,0,2.2-0.1,2.9-0.4V19z
	 M231.4,21.2h2.2v-8.8h-2.2v3.4h-5.8v-3.4h-2.2v8.8h2.2v-3.4h5.8V21.2z M243.2,21.2h2.5v-8.8h-2.2v5.5h-0.3l-5.1-5.5h-2.6v8.8h2.2
	v-5.6h0.3L243.2,21.2z M247,16.8c0,3.1,2.4,4.6,5.2,4.6c2.9,0,5.2-1.5,5.2-4.6c0-3-2.2-4.5-5.2-4.5C249.1,12.2,247,13.9,247,16.8z
	 M249.2,16.8c0-1.8,1.2-2.7,3-2.7c1.7,0,3,0.9,3,2.6c0,1.9-1.2,2.8-3,2.8C250.5,19.5,249.2,18.6,249.2,16.8z M258.7,21.2h7.6v-2.1
	h-5.4v-6.7h-2.2V21.2z M266.4,16.8c0,3.1,2.4,4.6,5.2,4.6c2.9,0,5.2-1.5,5.2-4.6c0-3-2.2-4.5-5.2-4.5
	C268.6,12.2,266.4,13.9,266.4,16.8z M268.7,16.8c0-1.8,1.2-2.7,3-2.7s3,0.9,3,2.6c0,1.9-1.2,2.8-3,2.8
	C269.9,19.5,268.7,18.6,268.7,16.8z M282.6,17.9h2v1.5c-0.5,0-0.9,0.1-1.3,0.1c-2.2,0-3.4-1-3.4-2.7c0-1.7,1.1-2.6,3.4-2.6
	c1.4,0,2.4,0.2,3.3,0.5l0.2-1.9c-0.7-0.3-2-0.5-3.5-0.5c-3.7,0-5.7,1.9-5.7,4.6c0,2.8,2.1,4.6,5.6,4.6c1.4,0,2.8-0.3,3.5-0.6V16
	h-4.2V17.9z M291.1,21.2h2.2v-2.9l4-5.9h-2.5l-2.5,3.8h-0.3l-2.4-3.8h-2.5l4,5.9V21.2z"/>
<path class="st1" d="M8.6,1.6V0H0.1v1.6h3.3v5.6h1.8V1.6H8.6z M17.1,7.2h1.8V0h-1.8v2.7h-5.8V0H9.5v7.2h1.8V4.5h5.8V7.2z M27.9,7.2
	V5.6h-5.7V4.4h5V2.8h-5V1.6h5.7V0h-7.5v7.2H27.9z M39,7.2h2.2V0h-1.8v4.5h-0.5L34.1,0h-2.5v7.2h1.8v-5h0.5L39,7.2z M50.1,7.2V5.6
	h-5.7V4.4h5V2.8h-5V1.6h5.7V0h-7.5v7.2H50.1z M52.8,7.2H56l1.5-5.7H58l1.7,5.7h3.2l2-7.2h-2l-1.3,5.7H61L59.4,0H56l-1.4,5.7h-0.4
	L52.6,0h-2L52.8,7.2z M73.8,5.2c0,0.3-0.6,0.6-2.2,0.6c-1.5,0-2.9-0.2-3.6-0.6L68,6.9c0.7,0.4,2.4,0.5,3.7,0.5c2.7,0,4-1.1,4-2.4
	c0-2.9-6-1.6-6-2.9c0-0.4,0.6-0.6,2.1-0.6c1.2,0,2.8,0.2,3.4,0.5l0.3-1.5c-0.6-0.3-2.1-0.6-3.6-0.6c-2.3,0-4,0.8-4,2.3
	C67.8,5.2,73.8,4,73.8,5.2z M84.5,5.4c-0.6,0.2-2,0.4-3,0.4c-2.2,0-3.2-0.8-3.2-2.2c0-1.3,0.9-2.1,3.3-2.1c0.9,0,2,0.1,2.8,0.3
	l0.2-1.6c-0.7-0.2-2.1-0.3-2.9-0.3c-3.5,0-5.3,1.5-5.3,3.7c0,2.2,1.7,3.8,5.1,3.8c1.1,0,2.4-0.2,2.9-0.4V5.4z M93.2,7.2H95V0h-1.8
	v2.7h-5.8V0h-1.8v7.2h1.8V4.5h5.8V7.2z M96,3.6c0,2.5,2.2,3.8,4.9,3.8c2.7,0,4.9-1.3,4.9-3.8c0-2.4-2-3.7-4.8-3.7
	C98-0.1,96,1.2,96,3.6z M97.9,3.6c0-1.5,1.2-2.2,3-2.2s3,0.7,3,2.2c0,1.6-1.2,2.3-3,2.3C99.1,5.8,97.9,5.1,97.9,3.6z M106.4,3.6
	c0,2.5,2.2,3.8,4.9,3.8c2.7,0,4.9-1.3,4.9-3.8c0-2.4-2-3.7-4.8-3.7C108.4-0.1,106.4,1.2,106.4,3.6z M108.2,3.6c0-1.5,1.2-2.2,3-2.2
	s3,0.7,3,2.2c0,1.6-1.2,2.3-3,2.3C109.5,5.8,108.2,5.1,108.2,3.6z M117.1,7.2h7.4V5.5h-5.6V0h-1.8V7.2z"/>
<rect y="9.2" class="st1" width="297" height="2"/>
<rect y="12.2" class="st1" width="60" height="2"/>
</svg>
